<svg class="icon" viewBox="0 0 1024 1024" version="1.1" xmlns="http://www.w3.org/2000/svg" fill="#000000"><path d="M848.042667 883.2V140.8a32 32 0 1 1 64 0v742.4a32 32 0 1 1-64 0z m-335.232-165.504a31.744 31.744 0 0 1 1.237333-45.184l135.424-127.744H144.213333a32 32 0 1 1 0-64h505.258667l-135.424-127.744a32.042667 32.042667 0 0 1 43.904-46.677333l194.090667 183.082666a31.36 31.36 0 0 1 9.898666 23.168 32.170667 32.170667 0 0 1-9.898666 23.424l-194.090667 182.826667a31.744 31.744 0 0 1-45.184-1.237333z"></path></svg>